<svg xmlns="http://www.w3.org/2000/svg" width="256.5" height="256" xmlns:v="https://vecta.io/nano"><path d="M254.912 193.372c-22.169 16.576-43.673 26.632-64.815 33.213-5.235-7.177-9.866-14.828-13.873-22.848a136.07 136.07 0 0 0 21.887-10.653c-1.822-1.366-3.608-2.779-5.356-4.237-41.62 19.702-87.387 19.702-129.51 0-1.731 1.46-3.524 2.879-5.356 4.237a136.37 136.37 0 0 0 21.846 10.632 161.09 161.09 0 0 1-13.873 22.848c-21.122-6.581-42.606-16.638-64.775-33.193-4.53-48.555 4.53-97.809 37.955-148.318a207.81 207.81 0 0 1 52.855-16.637c2.295 4.113 5.014 9.645 6.846 14.046 19.33-2.961 38.841-2.961 58.533 0 1.833-4.401 4.49-9.933 6.765-14.046a208.5 208.5 0 0 1 52.815 16.597c28.975 43.27 43.371 92.072 38.056 148.359zm-146.423-56.041c.221-14.396-10.148-26.2-23.015-26.2s-23.015 11.825-23.015 26.2 10.37 26.18 23.015 26.18c12.867 0 23.035-11.805 23.015-26.18zm85.051 0c.221-14.396-10.148-26.2-23.015-26.2s-23.015 11.825-23.015 26.2 10.37 26.18 23.015 26.18c12.866 0 23.015-11.805 23.015-26.18z" fill="#5865f2"/></svg>