<svg version="1.1" xmlns="http://www.w3.org/2000/svg" xmlns:xlink="http://www.w3.org/1999/xlink" width="31.998" height="31.21174" viewBox="0,0,31.998,31.21174"><g transform="translate(-224.001,-164.39413)"><g data-paper-data="{&quot;isPaintingLayer&quot;:true}" fill="#fafafa" fill-rule="nonzero" stroke="none" stroke-width="1" stroke-linecap="butt" stroke-linejoin="miter" stroke-miterlimit="10" stroke-dasharray="" stroke-dashoffset="0" style="mix-blend-mode: normal"><path d="M239.999,164.39413c8.839,0 16,7.167 16,16c0,7.063 -4.579,13.063 -10.979,15.156c-0.824,0.161 -1.104,-0.339 -1.104,-0.755c0,-0.521 0.02,-2.245 0.02,-4.385c0,-1.495 -0.521,-2.48 -1.077,-2.959c3.556,-0.391 7.296,-1.746 7.296,-7.891c0,-1.75 -0.62,-3.177 -1.635,-4.297c0.156,-0.402 0.698,-2.031 -0.161,-4.235c0,0 -1.338,-0.427 -4.381,1.641c-1.281,-0.354 -2.64,-0.532 -4,-0.541c-1.359,0.009 -2.719,0.186 -4,0.541c-3.061,-2.068 -4.4,-1.641 -4.4,-1.641c-0.86,2.204 -0.318,3.834 -0.141,4.235c-1.025,1.12 -1.645,2.546 -1.645,4.297c0,6.131 3.735,7.506 7.287,7.907c-0.454,0.395 -0.871,1.104 -1.011,2.135c-0.917,0.412 -3.234,1.12 -4.661,-1.328c0,0 -0.844,-1.536 -2.448,-1.645c0,0 -1.563,-0.021 -0.115,0.968c0,0 1.052,0.495 1.781,2.339c0,0 0.938,3.115 5.391,2.151c0.006,1.334 0.015,2.339 0.015,2.719c0,0.428 -0.29,0.923 -1.093,0.772c-6.353,-2.115 -10.937,-8.11 -10.937,-15.183c0,-8.833 7.161,-16 16,-16z"/></g></g></svg>