<svg xmlns="http://www.w3.org/2000/svg" width="310" height="310" xmlns:v="https://vecta.io/nano"><path d="M310 128.166v53.669c0 34.028-5.367 53.683-17.946 65.721-12.266 11.739-31.226 16.527-65.442 16.527H83.386C12.896 264.083 0 236.386 0 181.835v-53.669c0-28.158 0-48.503 10.869-62.311 11.148-14.162 32.158-19.938 72.517-19.938h143.225c39.456 0 60.116 5.426 71.306 18.728C309.159 78.006 310 98.471 310 128.166zm-105.61 25.367a10 10 0 0 0-5.392-8.861L133.96 110.9a10 10 0 0 0-14.609 8.874v67.764a10 10 0 0 0 4.819 8.554c1.589.962 3.383 1.446 5.181 1.446a9.99 9.99 0 0 0 4.632-1.137l65.038-33.991a10 10 0 0 0 5.369-8.877z" fill="#fa0000"/></svg>